<svg width="10" height="7" viewBox="0 0 10 7" fill="none" xmlns="http://www.w3.org/2000/svg">
<path d="M3.375 7C3.30352 6.99956 3.23283 6.98498 3.16701 6.95709C3.10119 6.9292 3.04154 6.88856 2.9915 6.8375L0.824835 4.63671C0.770374 4.58712 0.726597 4.52695 0.696182 4.45987C0.665767 4.39279 0.649353 4.32021 0.647942 4.24657C0.646531 4.17293 0.660153 4.09977 0.687977 4.03158C0.7158 3.96338 0.75724 3.90157 0.809762 3.84994C0.862284 3.7983 0.924786 3.75792 0.993446 3.73125C1.06211 3.70459 1.13548 3.69222 1.20909 3.69488C1.28269 3.69754 1.35498 3.71519 1.42154 3.74674C1.48809 3.77829 1.54751 3.82308 1.59617 3.87838L3.37771 5.68917L8.40871 0.658712C8.45868 0.606977 8.51845 0.565712 8.58453 0.537323C8.65062 0.508935 8.7217 0.493993 8.79362 0.493368C8.86554 0.492743 8.93687 0.506448 9.00344 0.533683C9.07 0.560919 9.13048 0.601139 9.18134 0.651998C9.2322 0.702856 9.27242 0.763334 9.29966 0.829903C9.32689 0.896472 9.3406 0.967799 9.33997 1.03972C9.33935 1.11164 9.3244 1.18272 9.29601 1.24881C9.26763 1.31489 9.22636 1.37466 9.17463 1.42463L3.75796 6.8413C3.6564 6.94288 3.51865 6.99997 3.375 7Z" fill="black"/>
</svg>
