<svg width="32" height="33" viewBox="0 0 32 33" fill="none" xmlns="http://www.w3.org/2000/svg">
<path d="M16 30.8333C15.8925 30.8333 15.7858 30.8157 15.684 30.7813C13.5653 30.076 3 25.9973 3 15.0187V7.16665C2.9997 6.93606 3.07921 6.71246 3.22504 6.53383C3.37086 6.35519 3.57401 6.23253 3.8 6.18665C7.89433 5.52471 11.8558 4.20975 15.5333 2.29199C15.6779 2.22009 15.8365 2.18112 15.9979 2.17789C16.1593 2.17466 16.3194 2.20726 16.4667 2.27332C20.133 4.21215 24.0935 5.53427 28.1893 6.18665C28.4153 6.23253 28.6185 6.35519 28.7643 6.53383C28.9101 6.71246 28.9896 6.93606 28.9893 7.16665V15.0187C28.9893 25.9973 18.424 30.076 16.3053 30.7813C16.2069 30.8146 16.1039 30.8322 16 30.8333ZM5 7.98265V15.0187C5 24.1707 13.5573 27.8987 16 28.7747C18.4427 27.8987 27 24.1707 27 15.0187V7.98265C23.1746 7.3097 19.4729 6.06275 16.02 4.28399C12.5516 6.05938 8.83719 7.30606 5 7.98265ZM15.3893 19.8733L20.7227 14.54C20.9047 14.3513 21.0054 14.0986 21.003 13.8365C21.0006 13.5743 20.8953 13.3235 20.7098 13.1382C20.5243 12.9528 20.2735 12.8478 20.0113 12.8456C19.7491 12.8435 19.4965 12.9444 19.308 13.1267L14.6827 17.752L12.7227 15.7933C12.5342 15.6111 12.2816 15.5102 12.0194 15.5123C11.7572 15.5145 11.5063 15.6195 11.3208 15.8048C11.1353 15.9902 11.0301 16.2409 11.0277 16.5031C11.0253 16.7653 11.1259 17.018 11.308 17.2067L13.9747 19.8733C14.0675 19.9662 14.1778 20.04 14.2992 20.0903C14.4205 20.1406 14.5506 20.1664 14.682 20.1664C14.8134 20.1664 14.9435 20.1406 15.0648 20.0903C15.1862 20.04 15.2965 19.9662 15.3893 19.8733Z" fill="#95ACDA"/>
</svg>
